<?xml version="1.0" encoding="UTF-8"?>
<!DOCTYPE svg PUBLIC "-//W3C//DTD SVG 1.1//EN" "http://www.w3.org/Graphics/SVG/1.1/DTD/svg11.dtd">
<!-- Creator: CorelDRAW -->
<svg xmlns="http://www.w3.org/2000/svg" xml:space="preserve" width="1.70666in" height="1.70666in" version="1.1" style="shape-rendering:geometricPrecision; text-rendering:geometricPrecision; image-rendering:optimizeQuality; fill-rule:evenodd; clip-rule:evenodd"
viewBox="0 0 1706.66 1706.66"
 xmlns:xlink="http://www.w3.org/1999/xlink"
 xmlns:xodm="http://www.corel.com/coreldraw/odm/2003">
 <defs>
  <style type="text/css">
   <![CDATA[
    .fil0 {fill:black}
   ]]>
  </style>
 </defs>
 <g id="Layer_x0020_1">
  <metadata id="CorelCorpID_0Corel-Layer"/>
  <path class="fil0" d="M1591.95 1287.54l-1477.24 0c-63.25,0 -114.71,-51.46 -114.71,-114.7l0 -1009.99c0,-63.25 51.46,-114.71 114.71,-114.71l1477.22 0c63.26,0 114.72,51.46 114.72,114.71l0 1009.99c0,63.25 -51.46,114.7 -114.71,114.7zm-1477.24 -1199.41c-41.2,0 -74.71,33.51 -74.71,74.71l0 1009.99c0,41.19 33.51,74.69 74.71,74.69l1477.22 0c41.2,0 74.71,-33.5 74.71,-74.69l0 -1009.99c0,-41.2 -33.51,-74.71 -74.71,-74.71l-1477.22 0z"/>
  <path class="fil0" d="M1062.64 1506.89c-11.04,0 -20,-8.97 -20,-20l0 -219.36c0,-26.33 40,-26.32 40,0l0 219.36c0.01,11.03 -8.96,20 -20,20zm-418.61 0c-11.04,0 -20,-8.97 -20,-20l0 -219.36c0,-26.33 40,-26.32 40,0l0 219.36c0,11.03 -8.94,20 -20,20z"/>
  <path class="fil0" d="M1169.16 1658.53l-631.66 0c-11.04,0 -20,-8.97 -20,-20l0 -86.94c0,-46.69 37.98,-84.71 84.69,-84.71l502.26 0c46.71,0 84.72,38 84.72,84.71l0 86.94c0,11.03 -8.97,20 -20.02,20zm-611.66 -40.01l591.66 0c0,-44.7 11.19,-111.62 -44.71,-111.62l-502.26 -0c-55.87,0 -44.69,66.93 -44.69,111.63z"/>
  <path class="fil0" d="M1686.66 1084.08l-1666.65 0c-26.32,0 -26.32,-40 0,-40l1666.65 0c26.32,0 26.32,40 0,40z"/>
  <path class="fil0" d="M907.22 1185.8l-107.78 0c-26.32,0 -26.32,-40 0,-40l107.78 0c26.32,0 26.32,40 0,40z"/>
  <path class="fil0" d="M1108.31 765.18c-103.01,0 -96.68,9.12 -96.68,-50.09 -6.08,-2.93 -11.93,-6.32 -17.53,-10.13 -51.54,29.73 -40.4,30.28 -91.73,-58.69 -12.73,-22.06 17.04,-32.93 33.36,-42.36l0 -20.25c-51.57,-29.77 -46.37,-19.87 4.99,-108.79 12.51,-21.66 35.98,-2.32 53.37,7.72 5.59,-3.83 11.43,-7.22 17.53,-10.14 0,-59.18 -6.32,-50.07 96.68,-50.08 25.02,0 20,29.97 20,50.07 6.08,2.93 11.93,6.32 17.53,10.14 51.56,-29.74 40.43,-30.24 91.73,58.69 12.73,22.07 -17.05,32.93 -33.37,42.35l0 20.23c51.74,29.88 46.24,19.93 -4.98,108.8 -12.49,21.67 -35.95,2.34 -53.39,-7.72 -5.59,3.82 -11.43,7.21 -17.51,10.13 0,20.15 5.02,50.11 -20,50.11zm-56.68 -40l36.68 0c0,-57.78 5.59,-27.55 43.01,-59.42 13.61,-11.59 27.67,0.61 43.25,9.61l18.36 -31.78c-50.09,-28.91 -21.24,-19.36 -29.94,-67 -3.2,-17.55 14.4,-23.64 29.93,-32.61l-18.35 -31.78c-50.17,28.96 -26.72,8.83 -72.96,-7.59 -16.85,-5.98 -13.31,-24.25 -13.31,-42.22l-36.69 0.02c0,57.84 -5.72,27.54 -43.02,59.4 -13.59,11.61 -27.69,-0.61 -43.23,-9.59l-18.36 31.78c50.08,28.92 21.22,19.38 29.93,67.02 3.2,17.55 -14.39,23.64 -29.92,32.6l18.35 31.78c50.15,-28.95 26.74,-8.85 72.96,7.57 16.85,5.99 13.31,24.24 13.31,42.22z"/>
  <path class="fil0" d="M890.18 492.99l-156.98 0c-26.33,0 -26.33,-40 0,-40l157 0c26.33,0 26.33,40 -0.02,40z"/>
  <path class="fil0" d="M861.96 612.63l-128.76 0c-26.33,0 -26.33,-40 0,-40l128.76 0c26.32,0 26.33,40 0,40z"/>
  <path class="fil0" d="M893.83 732.26l-160.63 0c-26.33,0 -26.33,-40 0,-40l160.63 0c26.32,0 26.33,40 0,40z"/>
  <path class="fil0" d="M605.78 492.99c-12.78,0 -25.79,-17.53 -38.93,-30.66 -18.63,-18.61 9.67,-46.9 28.28,-28.28l10.65 10.64 49.31 -49.31c18.64,-18.63 46.9,9.68 28.28,28.28 -19.67,19.65 -62.28,69.32 -77.59,69.32z"/>
  <path class="fil0" d="M602.1 612.63c-12.78,0 -25.8,-17.52 -38.93,-30.64 -18.63,-18.63 9.66,-46.91 28.3,-28.3l10.65 10.65 49.32 -49.32c18.61,-18.63 46.91,9.67 28.28,28.28 -19.69,19.66 -62.27,69.32 -77.61,69.32z"/>
  <path class="fil0" d="M602.28 732.28c-12.78,0 -25.79,-17.53 -38.93,-30.65 -18.63,-18.61 9.66,-46.9 28.28,-28.28l10.65 10.64 49.31 -49.31c18.63,-18.63 46.9,9.68 28.28,28.28 -19.7,19.68 -62.27,69.32 -77.59,69.32z"/>
  <path class="fil0" d="M979.08 357.68l-245.88 0c-26.33,0 -26.33,-40 0,-40l245.88 0c26.32,0 26.33,40 0,40z"/>
  <path class="fil0" d="M605.78 357.68c-12.79,0 -25.87,-17.57 -38.94,-30.65 -18.61,-18.64 9.67,-46.91 28.3,-28.3l10.64 10.65 49.32 -49.31c18.63,-18.63 46.9,9.67 28.28,28.28 -19.67,19.65 -62.28,69.34 -77.58,69.34z"/>
  <path class="fil0" d="M1069.97 990.19l-583.55 0c-11.04,0 -20,-8.97 -20,-20l0 -808.17c0,-11.04 8.96,-20 20,-20l583.55 0c11.04,0 20,8.96 20,20l0 280.39c0,23.23 -25.2,20 -38.33,20 0,57.84 -5.72,27.54 -43.02,59.4 -13.59,11.61 -27.69,-0.61 -43.23,-9.59l-18.36 31.78c50.08,28.92 21.22,19.38 29.93,67.02 3.21,17.55 -14.39,23.64 -29.91,32.6l18.35 31.78c50.15,-28.95 26.74,-8.85 72.95,7.57 16.85,5.99 13.32,24.24 13.32,42.24 13.12,-0.01 38.32,-3.26 38.32,19.98l0 225.01c0,11.04 -8.96,20 -20,20zm-563.56 -40l543.54 0 0 -185.01c-41.31,0 -38.32,-3.62 -38.32,-50.09 -6.08,-2.93 -11.93,-6.32 -17.53,-10.13 -51.54,29.73 -40.4,30.28 -91.73,-58.69 -12.73,-22.06 17.04,-32.93 33.36,-42.36l0 -20.25c-51.57,-29.77 -46.37,-19.87 4.99,-108.79 12.51,-21.66 35.98,-2.32 53.37,7.72 5.59,-3.83 11.43,-7.22 17.53,-10.14 0,-46.45 -2.98,-50.05 38.33,-50.08l0 -240.37 -543.54 0 0 768.17z"/>
  <path class="fil0" d="M917.19 851.9l-185.65 0c-26.33,0 -26.33,-40 0,-40l185.63 0c26.33,0 26.33,40 0.02,40z"/>
  <path class="fil0" d="M600.64 851.91c-12.78,0 -25.79,-17.53 -38.93,-30.66 -18.63,-18.61 9.66,-46.9 28.28,-28.28l10.65 10.64 49.31 -49.3c18.63,-18.63 46.9,9.67 28.28,28.28 -19.7,19.68 -62.27,69.32 -77.59,69.32z"/>
  <path class="fil0" d="M1069.97 667.63c-97.19,0 -97.17,-147.69 0,-147.69 97.19,0 97.19,147.69 0,147.69zm0 -107.69c-44.52,0 -44.52,67.69 0,67.69 44.56,0 44.54,-67.69 0,-67.69z"/>
 </g>
</svg>
