<?xml version="1.0" encoding="UTF-8"?>
<!DOCTYPE svg PUBLIC "-//W3C//DTD SVG 1.1//EN" "http://www.w3.org/Graphics/SVG/1.1/DTD/svg11.dtd">
<!-- Creator: CorelDRAW -->
<svg xmlns="http://www.w3.org/2000/svg" xml:space="preserve" width="1.70666in" height="1.70666in" version="1.1" style="shape-rendering:geometricPrecision; text-rendering:geometricPrecision; image-rendering:optimizeQuality; fill-rule:evenodd; clip-rule:evenodd"
viewBox="0 0 1706.66 1706.66"
 xmlns:xlink="http://www.w3.org/1999/xlink"
 xmlns:xodm="http://www.corel.com/coreldraw/odm/2003">
 <defs>
  <style type="text/css">
   <![CDATA[
    .fil0 {fill:black}
   ]]>
  </style>
 </defs>
 <g id="Layer_x0020_1">
  <metadata id="CorelCorpID_0Corel-Layer"/>
  <path class="fil0" d="M1614.09 1573.4l-1521.66 0c-50.97,0 -92.5,-41.53 -92.5,-92.5l0 -964.58c0,-50.97 41.53,-92.5 92.5,-92.5l1521.8 0c50.97,0 92.5,41.53 92.5,92.5l0 964.72c-0.14,50.97 -41.67,92.36 -92.64,92.36zm-1521.66 -1109.58c-28.89,0 -52.5,23.47 -52.5,52.5l0 964.72c0,28.89 23.47,52.5 52.5,52.5l1521.8 0c28.89,0 52.5,-23.47 52.5,-52.5l0 -964.72c0,-28.89 -23.47,-52.5 -52.5,-52.5l-1521.8 0z"/>
  <path class="fil0" d="M932.01 1158.95l-157.49 0c-30.97,0 -56.25,-25.28 -56.25,-56.25l0 -208.33c0,-30.97 25.28,-56.24 56.25,-56.24l157.35 -0c30.97,0 56.25,25.28 56.25,56.24l0 208.33c0,31.11 -25.14,56.25 -56.11,56.25zm-157.49 -280.69c-8.89,0 -16.25,7.22 -16.25,16.25l0 208.33c0,8.89 7.22,16.25 16.25,16.25l157.35 0c8.89,0 16.25,-7.22 16.25,-16.25l0 -208.33c0,-8.89 -7.22,-16.25 -16.25,-16.25l-157.35 0z"/>
  <path class="fil0" d="M1079.65 1009.51l-111.53 0c-26.3,0 -26.3,-40 0,-40l106.11 0 602.22 -347.63c9.58,-5.56 21.81,-2.22 27.36,7.36 5.56,9.58 2.22,21.81 -7.36,27.36l-606.94 350.41c-2.78,1.67 -6.25,2.5 -9.86,2.5z"/>
  <path class="fil0" d="M738.4 1009.51c-18.52,0 -117.98,2.86 -127.78,-2.64l-600.69 -346.8c-22.78,-13.18 -2.93,-47.82 20,-34.72l595.97 344.02 112.36 0c26.44,0 26.14,40.14 0.14,40.14z"/>
  <path class="fil0" d="M1686.59 1435.34l-1666.66 0c-26.33,0 -26.33,-40 0,-40l1666.66 0c26.3,0 26.3,40 0,40z"/>
  <path class="fil0" d="M1264.23 463.82c-10.97,0 -20,-8.89 -20,-20l0 -187.22c0,-45.97 -37.36,-83.33 -83.33,-83.33l-615.27 0c-45.97,0 -83.33,37.36 -83.33,83.33l0 187.22c0,26.36 -40,26.36 -40,0l0 -187.22c0,-67.92 55.28,-123.33 123.33,-123.33l615.27 0c67.92,0 123.33,55.28 123.33,123.33l0 187.22c0,11.11 -9.03,20 -20,20z"/>
  <path class="fil0" d="M1148.54 463.82c-10.97,0 -20,-8.89 -20,-20l0 -108.19c0,-21.81 -17.78,-39.72 -39.58,-39.72l-471.38 -0c-21.81,0 -39.72,17.78 -39.72,39.72l0 108.19c0,26.36 -40,26.36 -40,0l0 -108.19c0,-43.89 35.69,-79.72 79.72,-79.72l471.24 0c43.89,0 79.72,35.69 79.72,79.72l0 108.19c0,11.11 -9.03,20 -20,20z"/>
  <path class="fil0" d="M557.99 370.21l-115.7 0c-26.36,0 -26.36,-40 0,-40l115.7 0c26.43,0 26.26,40 0,40z"/>
  <path class="fil0" d="M1264.23 370.21l-115.7 0c-26.33,0 -26.33,-40 0,-40l115.7 0c26.33,0 26.33,40 0,40z"/>
 </g>
</svg>
